<?xml version="1.0" encoding="utf-8"?>
<!-- Generator: Adobe Illustrator 22.1.0, SVG Export Plug-In . SVG Version: 6.00 Build 0)  -->
<svg version="1.1" id="Layer_1" xmlns="http://www.w3.org/2000/svg" xmlns:xlink="http://www.w3.org/1999/xlink" x="0px" y="0px"
	 viewBox="0 0 461 772.5" style="enable-background:new 0 0 461 772.5;" xml:space="preserve">
<style type="text/css">
	.st0{fill:#EA4335;}
	.st1{fill:#4285F4;}
	.st2{fill:#FFD14B;}
	.st3{fill:#921D7C;}
	.st4{fill:#F96F30;}
	.st5{fill:#F59907;}
	.st6{fill:#FDC2B2;}
	.st7{opacity:0.4;fill:#FD8C6D;enable-background:new    ;}
	.st8{fill:url(#SVGID_1_);}
	.st9{fill:#D3D4FF;}
	.st10{fill:#F93E47;}
	.st11{fill:#D9373D;}
</style>
<g>
	<path class="st0" d="M373.9,30.4l-3.1-14.1c-0.7-3.5,0-7.2,1.9-10.2c2-3,5-5.1,8.5-5.8c3.5-0.8,7.2-0.1,10.2,1.8s5.2,4.9,6.1,8.4
		l1.8,8.3l-13.4,2.9c-2.4,0.5-4.7,1.5-6.8,2.9c-2,1.4-3.8,3.2-5.1,5.3C374,30.2,374,30.3,373.9,30.4"/>
	<path class="st1" d="M400.5,24l3,13.4c0.6,2.6,0.4,5.4-0.6,7.9s-2.7,4.7-4.9,6.2s-4.9,2.4-7.6,2.4c-2.7,0-5.4-0.7-7.7-2.2
		s-4.1-3.6-5.2-6.1c-1.1-2.5-1.4-5.2-1-7.9c0.5-2.7,1.7-5.1,3.6-7.1s4.3-3.3,6.9-3.9L400.5,24z"/>
	<path class="st2" d="M416.3,6.7c3.5-0.7,7.3-0.1,10.3,1.9c3.1,2,5.2,5.1,6,8.6s0.1,7.2-1.8,10.3c-2,3-5,5.2-8.6,6
		c-3.5,0.8-7.3,0.1-10.3-1.9c-3.1-2-5.2-5.1-6-8.6c-0.8-3.5-0.1-7.2,1.8-10.3C409.6,9.6,412.7,7.5,416.3,6.7z"/>
	<path class="st3" d="M377.8,420.5c0,0-3.2,17.6,0,17.9c3.2,0.4,11.3,2.1,13.6,1.3c2.3-0.8-0.2-25.1-7-24
		C377.8,416.7,377.8,420.5,377.8,420.5z"/>
	<path class="st3" d="M349.9,423.1c0,0-5.5-10.6-20.6-10.6c-15.1,0,16.2-13,24.1-10.6C361.2,404.4,349.9,423.1,349.9,423.1z"/>
	<path class="st4" d="M267.8,224.6c-1.1-21.7,2.8-32.7,14-30.2c11.1,2.5,30.7,4.3,42.2,14.2c11.7,9.8,17.4,25.5,14.7,41.9
		c-2.6,16.4,0.6,18.9,4.5,27c4.3,9.3,9.2,11.9,10.4,22.5c0.9,8.3-18.1,79.5-26.4,89c-6.6,7.6-17.9,10-25.8,16.1
		c-29.6,22.5,7,30.2,19.6,45.9c15.7,19.5,33.2,48,60.7,57.8c15.8,5.7,31.5,0,47.2,3.2c14.3,2.8,18.9,8.9,28.7,28.3
		c9.8,19.5-2.6,57.8-23.8,68c-21.1,10.2-37.2-1.1-54.3,7.4c-17.2,8.5-37.5,17.2-44.5,7s-1.1-17,6.2-21.3c7.4-4.3,16.2,5.7,26.6-1.9
		c10.4-7.6,3.4-36.3-12.1-33.6c-15.5,2.6-15.5,20.4-33.8,13.4s-3.8-28.1-14.3-38c-15.1-14-64.7,9.4-73.4-13.4
		c-8.7-23,6.6-44.8,10.6-50.2c4-5.5,7.4-8.7,5.8-11.3c-1.5-2.6-4.3-1.3-12.1,0c-7.5,1.1-24.5,0-31.9-9.1c-7.2-9.1-1.5-15.1-4.3-31.9
		s-13.6-9.8-22.8-28.1c-9.2-18.3,13.4-23.2,28.3-27.4c20.6-5.9,35.5-4.2,45.8-24.7c3.8-7.6,22.3-19.6,21.3-28.1
		c-1.3-12.1-15.8-27-19.8-37.4c-4.5-11.9,5.7-19.5,10-29.3C267.7,244.6,268,228,267.8,224.6z"/>
	<path class="st5" d="M290.3,423.1c-1.1,1.3-2.1,3-3.4,4.7c-10.9,16.8,6,14.4,25.5,27.8c19.4,13.4-10.2,21.5-27,20
		c-17-1.7-29-19.8-24.9-47.8c4.2-28-33.8-17.9-46.2-33.6c-12.4-15.7,10.9-18.9,20.4-31.2c7.5-2.8,13.8-7.6,19-17.9
		c0.2-0.4,0.4-0.8,0.6-1.1c2.3-3.6,7.4-8.1,11.9-12.7c4.9-5.1,9.4-10.2,8.9-14.5c-0.8-7.4-6.6-15.7-11.7-23.6
		c11.7-20.2,37-60.4,19-91.6c1.3,0.6,45.3,17.9,45.6,60.4c0.2,43.1-4.9,67.8-10.8,76.7c-0.8,1.1,18.7,41,10.4,50.4
		c-6.6,7.6-17.9,10-25.8,16.1C291.8,412.3,289.2,418,290.3,423.1z"/>
	<path class="st3" d="M332.5,303.4c-0.2,4,0,13.8,0,13.8l7.4-4.7L332.5,303.4z"/>
	<path class="st6" d="M339,725.1c-9.1,9.3-11.7,36.5-14.5,40c-2.8,3.6-16.2,8.3-17.5,7.2s-1.5-4.9,2.8-14.2c4.2-9.3,4.3-17.4,7-23.6
		c2.6-6.4,9.2-5.5,14.7-13.4c3-4.3,19.2-42.5,37.9-62.7c15.3-16.6,28.5,4.9,31.3-0.9c6.4-13.2,1.1-15.7-9.2-42.1
		c-10.9-28.3-14.7-49.9-27-79.3c-5.5-13-20.7-15.3-26.8-3.4c-10.4,20.4-15.8,34.6-48.9,75.7c-28.7,35.7-46.2,48.3-77.1,62.7
		s-69.6-7.2-100.7-16.4c-31.1-9.4-51.1-13.4-63-8.3c-11.9,5.1-19.2,7.2-27.9,11.1c-8.7,4-25.7,7-18.3-5.9
		c7.4-12.8,18.7-12.7,28.3-15.9c9.6-3,23-12.5,30.2-11.1c7.2,1.5,3.8,12.5,19.4,10.4c15.8-2.1,70.2-22.1,97.7-11.9
		c27.5,10.2,51.9-43.6,72.4-93.9c20.6-50.4,33.2-63.8,47.9-78.8c14.7-14.9,25.1-19.8,42.1-20.4c0,0,4.5-1.1,4.9-12.5
		c0.4-11.1-4-19.1-15.8-26.3c-14-8.5-23.8-26.3-29.6-28.1c-6.4-2.1-30.4-1.3-45.5-5.7c-15.1-4.2-24-6.8-27.9-9.3
		c-4-2.5-1.5-4.3-7.2-13c-5.7-8.7-10.4-17.9-14.1-32.1c-4-14.2-2.8-24-8.1-24.7c-5.3-0.9-12.4-17-13.8-20c-1.1-3,1.7-4.7,1.7-4.7
		s-2.1-4,3.8-5.5c-0.6-2.6-1.5-7.9,1.1-8.9c2.5-0.9,4,2.1,4,2.1s-0.6-2.5-0.9-5.1c-0.4-2.6,1.1-7.6,5.7-1.1
		c4.5,6.4,4.5,18.5,9.2,19.8s3.6-1.5,3.8-7.9c0-6.4,5.5-9.1,5.5-9.1s-0.6,10.2,1.1,15.5s1.5,13.4-1.3,20.8s-5.1,9.6,3.8,25.1
		c9.1,15.5,12.3,21.9,27.9,29.3c15.7,7.4,26.4-1.7,39.4,0.6c13,2.5,17.2,0,27.5-4.7c0,0-5.5-15.1-8.3-21
		c-7-14.4-15.5-32.9-25.3-50.8s-4.1-44.4,8.1-32.3c2.6,2.6,7.9,9.6,15.1,21.7c4.3,7.6,7.5,12.8,11.3,21.3s-0.2,13-2.6,18.9
		l16.6,34.8c0,0,9.1-3.4,9.8-7.9c0.8-4.5-0.9-8.7,2.3-23.4c3.2-14.7,12.6-31.7,17.4-52.7c4.7-21,4.9-35.5,7.5-58.7
		c2.8-23.2,0.8-35.3,0.6-52.1s1.5-40.6,0.9-47.8c-0.8-9.1-3-16.4-3.8-20c-0.8-3.4,0.6-9.8,1.1-14.2c0.6-4.3,4.9-11.7,5.8-14.7
		c0.8-2.8,3.4,1.1,1.9,5.7c-1.5,4.5-5.3,11.7-3,14c0,0,2.6-4.9,6.4-7.7c3.8-2.8,6-3.8,7-2.5c0.2,0.2,0.2,0.6,0.2,0.8
		c0.4-0.2,0.8-0.4,1.1-0.4c2.5-0.8,1.7,3.2,0.2,4.5c-1.5,1.1-3.8,1.1-5.7,3.8c-1.9,2.6-1.9,4.7-1.9,4.7s2.1-1.9,4.9-4.9
		c2.8-3,4.3-1.5,2.6,1.1c-1.7,2.5-7,5.9-6.4,7.7c0.4,1.9-0.2,9.3,0.9,13.4c1.1,4.2-2.6,9.1-2.6,9.1s5.1,33.2,6.2,50.4
		c1.1,17.2,3.4,53.1,2.5,68.2c-0.9,15.1-13.4,78.9-16.4,101c-2.8,22.1-4.7,22.7-4,28c0.9,5.3,19,14.4,19.6,24
		c0.6,9.4-5.1,19.3-5.1,19.3s1.7,29.1,0,35.5s0.6,21.5,3.8,31.9c3.2,10.2,16.2,29.3,23.8,45.7c7.4,16.4,33.6,71.2,35.8,105.8
		c2.3,34.4-9.6,87.6-24.5,103.3C403.8,703.2,348,716,339,725.1z"/>
	<path class="st7" d="M318.6,294.1l-9.4,15.7c-0.9-2.5-1.9-4.5-2.6-6c-7-14.4-15.5-32.9-25.3-50.8c-1.1-2.1-2.1-4.3-2.8-6.8l4.3-2.6
		c0,0,12.1,27.2,17.9,27.8c3.8,0.4,11.1-2.3,16.2-4.3c1.7,6.4-1.7,10.6-3.8,15.5L318.6,294.1z"/>
	<path class="st4" d="M288,219.3c0,0,2.8,21.9-9.6,45.3c-12.1,22.9-7-37.2-4.7-51C276.1,199.9,288,219.3,288,219.3z"/>
	<path class="st7" d="M342.2,427.8c1.1-1.7,2.3-4.7,2.5-10.2c0.4-11.1-4-19.1-15.8-26.3c-0.4-0.2-0.6-0.4-0.9-0.6
		c2.3-0.4,5.1-0.2,8.5,0.4c19.4,3.4,34.5,12.1,43.2,19.8c0.6,7,2.1,15.3,4.1,21.9c0.9,3.2,3,7.2,5.5,11.7
		C374.6,439,354,432.2,342.2,427.8z"/>
	
		<linearGradient id="SVGID_1_" gradientUnits="userSpaceOnUse" x1="257.2442" y1="548.5847" x2="393.0047" y2="548.5847" gradientTransform="matrix(1 0 0 1 -5.500000e-02 -195.14)">
		<stop  offset="0" style="stop-color:#DA0044"/>
		<stop  offset="0.1707" style="stop-color:#BB0D5C"/>
		<stop  offset="0.3635" style="stop-color:#9D1973"/>
		<stop  offset="0.4731" style="stop-color:#921D7C"/>
		<stop  offset="0.5794" style="stop-color:#96207D"/>
		<stop  offset="0.6833" style="stop-color:#A22A7E"/>
		<stop  offset="0.7863" style="stop-color:#B53A81"/>
		<stop  offset="0.8888" style="stop-color:#D15185"/>
		<stop  offset="0.9899" style="stop-color:#F46F8A"/>
		<stop  offset="1" style="stop-color:#F8728B"/>
	</linearGradient>
	<path class="st8" d="M386.5,341.3c2.8,11.9-1.3,20.4-2.3,29.8c-1.1,10.4,0.9,21.7,3.6,28.3c5.1,12.7,5.1,29.5,5.1,33.2
		c0,3.8,0.4,6.2-1.7,6.8c-1.7-1.9-3.6-6.6-10.2-13c-6.6-6.2-7.7-7.6-20.6-12.3c-12.8-4.7-20.6-6.4-34.5,0.2
		c-14.1,6.6-18.7,1.9-8.7-11.1s-3-3.8-3.6-9.8c-0.8-6,9.8-1.9-0.9-13.6c-10.8-11.7-18.5-14.2-43.4-10c-24.9,4-2.8-23.8-8.5-41.7
		c0,0-0.4-3.6,18.5-3.8c18.9-0.2,26.8-0.9,26.8-0.9s18.5,33.8,34,21.9c15.5-12.1-7.5-42.1-7.5-42.1s0.8-15.9,10.4-31.9
		c9.6-16.2,35.1,23.8,35.1,23.8s-6.4,5.9-8.1,14.7C368,318.8,382,322.2,386.5,341.3z"/>
	<path class="st9" d="M431.2,535.3c-15.1,4.3-46.6,13.4-59.6,18.9c-2.1-5.7-4.3-11.7-7-18.1c-5.5-13-20.7-15.3-26.8-3.4
		c-2.3,4.5-4.3,8.9-6.6,13.2c-8.1-11.9-23.2-28.7-45.8-37.4c-9.8-3.6-17.4-6-23-7.4c13.8-28.1,24-38.9,35.5-50.6
		c10.6-10.6,18.7-16.1,28.7-18.7c3.2,4.7,12.6,16.1,29.8,20.8c16.8,4.7,32.6,3.4,38.9,2.6c4.3,7.6,8.9,15.7,12.4,23.2
		C411.8,488.1,422.5,510.9,431.2,535.3z"/>
	<path class="st9" d="M431.2,535.3c-15.1,4.3-46.6,13.4-59.6,18.9c-2.1-5.7-4.3-11.7-7-18.1c-5.5-13-20.7-15.3-26.8-3.4
		c-2.3,4.5-4.3,8.9-6.6,13.2c-8.1-11.9-23.2-28.7-45.8-37.4c-9.8-3.6-17.4-6-23-7.4c13.8-28.1,24-38.9,35.5-50.6
		c5.5-5.5,10.2-9.4,14.9-12.5c4.5-3,9.1-4.9,14-6c3.2,4.7,12.6,16.1,29.8,20.8c16.8,4.7,32.6,3.4,38.9,2.6c2.5,4.3,4.9,8.7,7.4,13
		c1.9,3.4,3.6,6.8,5.1,10C411.8,488.1,422.5,510.9,431.2,535.3z"/>
	<path class="st5" d="M402.3,468.4c-7.4,1.9-20.4,3-42.2-0.9c-29-5.1-42.4-21.3-47.5-29.5c4.5-3,9.1-4.9,14-6
		c3.2,4.7,12.6,16.1,29.8,20.8c16.8,4.7,32.6,3.4,38.9,2.6C397.4,459.5,399.9,463.9,402.3,468.4z"/>
	<path class="st10" d="M402.3,468.4c-1.1,0.2-2.3,0.6-3.6,0.8c-0.9,0.2-2.1,0.4-3.2,0.4c-7.7,0.9-19.2,0.8-35.5-2.1
		c-18.5-3.2-30.6-11-38.3-18.3c-1.1-1.1-2.3-2.3-3.4-3.4c-2.6-2.8-4.5-5.7-6-7.7c4.5-3,9.1-4.9,14-6c0.8,1.1,1.7,2.5,3.2,4
		c0.8,0.9,1.9,2.1,3,3.2c5.1,4.9,12.8,10.6,23.6,13.6c13.6,3.8,26.2,3.8,34.1,3.2c1.1-0.2,1.9-0.2,2.8-0.4c0.8,0,1.3-0.2,1.9-0.2
		C397.4,459.5,399.9,463.9,402.3,468.4z"/>
	<path class="st11" d="M386.3,471.3c-7.7,0-16.6-0.9-26.4-2.6c-15.7-2.8-28.9-9.1-38.9-18.7c-1.3-1.1-2.5-2.3-3.4-3.4
		c-2.3-2.5-4.3-5.1-6-7.9l-0.6-1.1l0.9-0.8c4.5-3,9.1-4.9,14.3-6.2l0.8-0.2l0.6,0.8c0.9,1.3,1.9,2.6,3,4c0.8,0.9,1.9,2.1,3,3.2
		c4.3,4.3,12.1,10.2,23,13.4c8.1,2.3,16.6,3.4,25.8,3.4c2.6,0,5.3-0.2,7.9-0.4c0.9-0.2,1.9-0.2,2.8-0.4c0.6,0,0.9,0,1.3-0.2l1.5-0.2
		l0.6,0.9c2.5,4.2,4.9,8.5,7.2,12.8l0.8,1.5l-1.5,0.4c-1.1,0.2-2.3,0.6-3.8,0.8c-0.9,0.2-2.1,0.4-3.2,0.4
		C392.7,471.1,389.7,471.3,386.3,471.3z M314.2,438.4c1.5,2.3,3.2,4.5,5.1,6.6c0.9,1.1,2.1,2.3,3.2,3.4c9.8,9.3,22.4,15.3,37.7,17.9
		c13.8,2.5,25.7,3.2,35.1,2.1c1.1-0.2,2.1-0.4,3-0.4c0.8-0.2,1.3-0.2,1.9-0.4c-2.1-3.6-4.1-7.4-6-11c-0.4,0-0.8,0-1.1,0.2
		c-0.8,0.2-1.7,0.2-2.8,0.4c-2.6,0.2-5.5,0.4-8.1,0.4c-9.2,0-18.3-1.1-26.4-3.4c-11.5-3.2-19.4-9.4-24.1-14c-1.1-1.1-2.3-2.3-3-3.4
		c-0.9-1.1-1.9-2.3-2.6-3.4C321.6,434.4,317.8,435.9,314.2,438.4z"/>
	<path class="st9" d="M332.5,439l-10.8,10c-1.1-1.1-2.3-2.3-3.4-3.4l11.1-10C330.3,436.9,331.4,437.8,332.5,439z"/>
	<path class="st9" d="M398.7,469.2c-0.9,0.2-2.1,0.4-3.2,0.4l-5.3-13.8c1.1-0.2,1.9-0.2,2.8-0.4
		C393.1,455.6,398.7,469.2,398.7,469.2z"/>
	<path class="st9" d="M363.7,452l-4.3-0.9c-4.9-0.9-9.6,2.1-10.6,7c-0.9,4.9,2.1,9.6,7,10.6l4.3,0.9c4.9,0.9,9.6-2.1,10.6-7
		C371.6,457.7,368.6,452.9,363.7,452z M359.9,466.9l-3-0.6c-3.4-0.8-5.7-4.2-5.1-7.6c0.8-3.4,4.1-5.7,7.5-5.1l3,0.6
		c3.4,0.8,5.7,4.2,5.1,7.6C366.9,465.4,363.5,467.7,359.9,466.9z"/>
	<path class="st9" d="M359.7,460.3c-0.2,0.8-0.9,1.3-1.9,1.1l-5.8-1.1c-0.8-0.2-1.3-0.9-1.1-1.9c0.2-0.8,0.9-1.3,1.9-1.1l5.8,1.1
		C359.3,458.8,359.9,459.5,359.7,460.3z"/>
	<path class="st7" d="M182.6,675.8c-24.1-1.9-49.6-14.5-71.7-21c-31.1-9.4-51.1-13.4-63-8.3c-11.9,5.1-19.2,7.2-27.9,11.1
		c-6,2.6-16.2,5.1-19.2,1.9c14.1-13.8,35.3-21.2,67.3-18.5c92.6,7.2,89.6,10.4,109,30.4C178.8,673,180.7,674.5,182.6,675.8z"/>
	<path class="st7" d="M416.9,689.2c-17,14.9-69,27.2-77.9,36.1c-0.9,0.9-1.7,1.9-2.5,3.2c-0.4-3.2-1.9-6.2-4.9-7.6
		c3.6-5.7,19.4-42.5,37.7-62.3c15.3-16.6,28.5,4.9,31.3-0.9c2.8-5.9,3.4-9.6,2.1-14.5C407.8,657.1,403.3,679.8,416.9,689.2z"/>
	<path class="st3" d="M340.6,391.9c-3.2,1.1-6.4,2.1-9.6,2.8c10.8,0.4,23.4,1.3,27,3.6c0,0-32.3,4.9-42.8,7.7
		c0.6-0.9,1.3-1.9,2.1-2.8c10-13-3-3.6-3.6-9.8c-0.8-6,9.8-1.9-0.9-13.6c-10.8-11.7-18.5-14.2-43.4-10c-10.6,1.7-12.6-2.3-12.1-8.9
		c8.3-3.8,20.6-7.6,33.8-5.1c12.6,2.5,16.8,17.6,41.1,21.5c24.3,4,37.7-12.5,41.1-12.7C374,364.7,361.8,385.1,340.6,391.9z"/>
	<path class="st3" d="M372.9,318.7c-5.8-5.3-17-16.8-14.9-25.9c2.1-9.6,13.6-0.4,18.3,4c-2.1,2.3-5.5,7-6.6,13.2
		C368.9,313.2,370.5,315.8,372.9,318.7z"/>
	<path class="st7" d="M388.6,607.6c-8.9-24.6-12.8-45-24-71.6c-5.5-13-20.7-15.3-26.8-3.4c-10.2,20.4-15.7,34.4-48.9,75.7
		c-4.3,5.5-8.5,10.2-12.4,14.7c12.3-21.9,37-67.4,44.3-89.9c10-30.2,14.9-33.6,34.3-24.6c19.2,9.1,17.2,0,22.8,31.2
		C382.1,561.3,384.8,586.7,388.6,607.6z"/>
	<path class="st7" d="M385,44.4c-1.7,2.5-7,5.9-6.4,7.7c0,0.4,0.2,0.9,0.2,1.5c-8.1-0.6-6.6-11.3-6.6-11.3c1.1-1.5,2.6-3.6,4.5-4.9
		c3.8-2.8,6-3.8,7-2.5c0.2,0.2,0.2,0.6,0.2,0.8c0.4-0.2,0.8-0.4,1.1-0.4c2.5-0.8,1.7,3.2,0.2,4.5c-1.5,1.1-3.8,1.1-5.7,3.8
		c-1.9,2.6-1.9,4.7-1.9,4.7s2.1-1.9,4.9-4.9C385.2,40.4,386.7,42,385,44.4z"/>
	<path class="st7" d="M196.5,267.5c-3.4-0.8-6.4-0.9-9.6-0.2c-2.1-3.8-3.6-7.6-4.1-8.7c-0.6-1.1-0.4-2.1,0.2-2.8
		c2.1,3,5.8,8.1,7.4,7c1.5-1.1,0.2-3.2-0.4-4c0.8,0.8,2.1,1.3,3.6,0.2c2.1-1.3-2.3-6.8-2.8-7.6c0.4,0.4,3.2,2.8,4.5,1.5
		c1.5-1.5,0.9-3.2-0.2-7.2c0.9,1.1,2.1,1.9,3.8,1.5c1.7-0.4,2.3-4.9,1.9-6c0.6,1.9,1.1,3.6,1.7,5.5
		C202.4,248.8,200.9,268.4,196.5,267.5z"/>
	<path class="st6" d="M384.8,44.5c-1.7,2.5-7,5.9-6.4,7.7c0,0.4,0.2,0.9,0.2,1.5c-8.1-0.6-6.6-11.3-6.6-11.3
		c1.1-1.5,2.6-3.6,4.5-4.9c3.8-2.8,6-3.8,7-2.5c0.2,0.2,0.2,0.6,0.2,0.8c0.4-0.2,0.8-0.4,1.1-0.4c2.5-0.8,1.7,3.2,0.2,4.5
		c-1.5,1.1-3.8,1.1-5.7,3.8c-1.9,2.6-1.9,4.7-1.9,4.7s2.1-1.9,4.9-4.9C385,40.5,386.5,42,384.8,44.5z"/>
</g>
</svg>
