<svg id="Слой_1" data-name="Слой 1" xmlns="http://www.w3.org/2000/svg" viewBox="0 0 400 78.56"><defs><style>.cls-1,.cls-6{fill:#fff;}.cls-2,.cls-5{fill:#4f9bd6;}.cls-3,.cls-4{fill:#65b1eb;}.cls-4,.cls-5,.cls-6{fill-rule:evenodd;}</style></defs><path class="cls-1" d="M90.35,53.63V13h8V46.38h20.12v7.25Z"/><path class="cls-1" d="M140.69,13a11.11,11.11,0,0,1,5.2,1.15,11.39,11.39,0,0,1,3.63,3,12.18,12.18,0,0,1,2.12,4.11,15.58,15.58,0,0,1,.68,4.45,13.38,13.38,0,0,1-.8,4.49,13.54,13.54,0,0,1-2.3,4.07,11.75,11.75,0,0,1-3.72,3,10.7,10.7,0,0,1-5,1.15H130.6V53.63h-8.08V13ZM130.6,31.09h8.26a5.39,5.39,0,0,0,4.19-1.54,5.48,5.48,0,0,0,1.42-3.86,5.16,5.16,0,0,0-5.61-5.46H130.6Z"/><path class="cls-1" d="M182.55,51a17.94,17.94,0,0,1-7,2.74,20.67,20.67,0,0,1-3.39.3,19.9,19.9,0,0,1-5.64-.83,15.81,15.81,0,0,1-5-2.45,12.7,12.7,0,0,1-3.6-4.07A11.41,11.41,0,0,1,156.52,41V25.9a12.09,12.09,0,0,1,1.33-5.76A12.48,12.48,0,0,1,161.39,16a15.87,15.87,0,0,1,5.05-2.53,20,20,0,0,1,5.84-.86,24.63,24.63,0,0,1,6.9,1,14.93,14.93,0,0,1,5.73,3l-4,6.26a10.73,10.73,0,0,0-4.19-2.21A16.49,16.49,0,0,0,172.4,20a10.34,10.34,0,0,0-2.81.38,6.88,6.88,0,0,0-2.48,1.27,7.09,7.09,0,0,0-1.8,2.3,7.61,7.61,0,0,0-.7,3.42V39.24a7.89,7.89,0,0,0,.65,3.39A6.45,6.45,0,0,0,167,44.9a6.91,6.91,0,0,0,2.42,1.3,9.63,9.63,0,0,0,2.77.41,11.71,11.71,0,0,0,2.57-.32,6.77,6.77,0,0,0,2.74-1.45V38.05h-5.9v-6.9h14V48.26A13.63,13.63,0,0,1,182.55,51Z"/><path class="cls-1" d="M197.78,41.24v.95a5.33,5.33,0,0,0,.44,2.24A4.24,4.24,0,0,0,199.4,46a5,5,0,0,0,1.68.89,6.6,6.6,0,0,0,2,.29,15.06,15.06,0,0,0,3.07-.38,9.47,9.47,0,0,0,3.89-2l4.13,5.14A15,15,0,0,1,211.47,52a13.67,13.67,0,0,1-2.72,1.24,13.15,13.15,0,0,1-2.74.59,26,26,0,0,1-2.8.15,18.4,18.4,0,0,1-4.93-.65,12,12,0,0,1-4.1-2A9.72,9.72,0,0,1,191.35,48a10.07,10.07,0,0,1-1.07-4.78V35.64a11.67,11.67,0,0,1,1-4.87,10.29,10.29,0,0,1,2.68-3.63,11.9,11.9,0,0,1,4-2.25,14.84,14.84,0,0,1,4.84-.76,15.8,15.8,0,0,1,5,.76,11.5,11.5,0,0,1,4,2.22,10.09,10.09,0,0,1,2.59,3.57,11.77,11.77,0,0,1,.95,4.84v5.72Zm10-5.48a4.26,4.26,0,0,0-1.47-3.59A5.56,5.56,0,0,0,202.79,31a5.22,5.22,0,0,0-3.54,1.29A4.6,4.6,0,0,0,197.78,36v.35h10Z"/><path class="cls-1" d="M237.57,53.63v-18a4.44,4.44,0,0,0-1.12-3.46,4,4,0,0,0-2.72-1,8.74,8.74,0,0,0-3,.62,21.72,21.72,0,0,0-3.83,2V53.63h-7.5V24.48h6.9l.6,2.54a18.4,18.4,0,0,1,5.45-2.48,18.7,18.7,0,0,1,3.69-.47q4.84,0,7,2.86a12.45,12.45,0,0,1,2.15,7.64V53.63Z"/><path class="cls-1" d="M257,41.24v.95a5.33,5.33,0,0,0,.44,2.24A4.24,4.24,0,0,0,258.6,46a5.16,5.16,0,0,0,1.69.89,6.58,6.58,0,0,0,2,.29,15.06,15.06,0,0,0,3.07-.38,9.56,9.56,0,0,0,3.9-2l4.13,5.14A15,15,0,0,1,270.67,52,13.6,13.6,0,0,1,268,53.19a13.24,13.24,0,0,1-2.75.59,25.85,25.85,0,0,1-2.8.15,18.46,18.46,0,0,1-4.93-.65,12.12,12.12,0,0,1-4.1-2A9.83,9.83,0,0,1,250.55,48a10.07,10.07,0,0,1-1.06-4.78V35.64a11.67,11.67,0,0,1,1-4.87,10.2,10.2,0,0,1,2.69-3.63,11.85,11.85,0,0,1,4-2.25,14.88,14.88,0,0,1,4.84-.76,15.87,15.87,0,0,1,5,.76,11.46,11.46,0,0,1,4,2.22,10.11,10.11,0,0,1,2.6,3.57,11.77,11.77,0,0,1,.94,4.84v5.72Zm10-5.48a4.27,4.27,0,0,0-1.48-3.59A5.51,5.51,0,0,0,262,31a5.18,5.18,0,0,0-3.54,1.29A4.58,4.58,0,0,0,257,36v.35h10Z"/><path class="cls-1" d="M297.33,31.74a28.27,28.27,0,0,0-6.4,1.21,23.47,23.47,0,0,0-4.58,2.1V53.63h-7.49V24.36h6.9l.54,4.31h.05a13,13,0,0,1,2-1.59,23.07,23.07,0,0,1,2.74-1.51,21.62,21.62,0,0,1,3.07-1.12,11.93,11.93,0,0,1,3.13-.44Z"/><path class="cls-1" d="M317.52,51.21a19.55,19.55,0,0,1-4.78,2.1,15.78,15.78,0,0,1-3.95.56q-4.5,0-6.94-2.39A8.7,8.7,0,0,1,299.4,45a8,8,0,0,1,1-4.1A8.68,8.68,0,0,1,303,38.11a10.74,10.74,0,0,1,3.45-1.53,15.09,15.09,0,0,1,3.6-.47h7.56V34.87a3.89,3.89,0,0,0-1.18-3.1c-.79-.69-2.18-1-4.19-1a19,19,0,0,0-3.51.41,9.84,9.84,0,0,0-4.22,2.12l-3.37-5.48a16,16,0,0,1,6.17-3.07A25.27,25.27,0,0,1,313,24q6.24,0,9.17,2.83t2.92,8.56V53.63h-6.85l-.52-2.36Zm.12-9.56h-6.26a10.43,10.43,0,0,0-1.38.09,3.2,3.2,0,0,0-1.24.42,2.58,2.58,0,0,0-.92.88,2.66,2.66,0,0,0-.35,1.45,2.43,2.43,0,0,0,.85,1.92,3.86,3.86,0,0,0,2.57.73,9.9,9.9,0,0,0,3.72-.73,31.13,31.13,0,0,0,3-1.39Z"/><path class="cls-1" d="M328.46,30.56V24.48h3.78l1.31-7.32h6.07v7.32h7.08v6.08h-7.08V42.67a6.54,6.54,0,0,0,.67,3.24c.46.78,1.51,1.17,3.16,1.17a13.58,13.58,0,0,0,1.89-.14,18.81,18.81,0,0,0,2.36-.51l1.36,6.43a15.85,15.85,0,0,1-3.93.92,34.25,34.25,0,0,1-3.45.21,12.54,12.54,0,0,1-4.71-.77,7,7,0,0,1-3-2.15,8.14,8.14,0,0,1-1.48-3.31,19.41,19.41,0,0,1-.42-4.16v-13Z"/><path class="cls-1" d="M376.76,43.25A9.71,9.71,0,0,1,375.67,48a10,10,0,0,1-2.89,3.33,12.45,12.45,0,0,1-4.11,2,17.35,17.35,0,0,1-4.72.65,17.68,17.68,0,0,1-4.78-.65,12.49,12.49,0,0,1-4.1-2A9.69,9.69,0,0,1,352.21,48a9.93,9.93,0,0,1-1.06-4.72V34.81a9.71,9.71,0,0,1,1.09-4.72,10.13,10.13,0,0,1,2.89-3.34,13.1,13.1,0,0,1,4.13-2,16.68,16.68,0,0,1,4.75-.68,17.27,17.27,0,0,1,4.93.68,12.06,12.06,0,0,1,4.07,2,9.72,9.72,0,0,1,2.75,3.4,10.72,10.72,0,0,1,1,4.75Zm-7.5-7.18a5.21,5.21,0,0,0-.47-2.37,4.6,4.6,0,0,0-1.24-1.57,4.7,4.7,0,0,0-1.68-.89A6.54,6.54,0,0,0,364,31a7.17,7.17,0,0,0-1.92.27,4.64,4.64,0,0,0-3,2.46,5.35,5.35,0,0,0-.47,2.37v5.8a5.88,5.88,0,0,0,.44,2.4,4.35,4.35,0,0,0,1.21,1.6,4.79,4.79,0,0,0,1.72.89,7.21,7.21,0,0,0,2,.26,6.53,6.53,0,0,0,1.86-.26,4.7,4.7,0,0,0,1.68-.89,4.53,4.53,0,0,0,1.24-1.6,5.41,5.41,0,0,0,.47-2.4Z"/><path class="cls-1" d="M400,31.74A28.27,28.27,0,0,0,393.6,33a23.47,23.47,0,0,0-4.58,2.1V53.63h-7.49V24.36h6.9l.53,4.31H389a12.51,12.51,0,0,1,2-1.59,22.31,22.31,0,0,1,2.74-1.51,21.62,21.62,0,0,1,3.07-1.12A11.87,11.87,0,0,1,400,24Z"/><path class="cls-2" d="M63,1.22C57.8.61,58.13,4.28,57.43,7.78A4.77,4.77,0,0,1,54.82,11a34.2,34.2,0,0,1,7,9.11,19.19,19.19,0,0,0,4.91-8C68.2,6.44,68.12,1.84,63,1.22Zm2.65,5.11c-.34,1.25-1.91,1.86-3.52,1.42s-2.61-1.47-2.31-3,1.91-1.86,3.52-1.42S66,5.09,65.61,6.33Z"/><path class="cls-3" d="M8.7,5.39C8.13.82,5.17-.7,2.38.29c-2.52.87-4.55,9.87,2.19,17.9a31.68,31.68,0,0,1,7.24-8.4A5.72,5.72,0,0,1,8.7,5.39Zm-4,2.76C3.49,8.27,2.4,7,2.24,5.36s.38-3.21,1.88-3.23S6.44,3.26,6.6,4.92,5.94,8,4.72,8.15Z"/><path class="cls-4" d="M60.93,22.52C53.94,8.57,44.56,5.7,32.64,5.7S11.35,8.57,4.35,22.52C1.65,27.93,0,37.93.07,48.62c.07,11.13,2,20.81,5.11,25.88C6.85,77.19,8.8,78.56,11,78.56c3.21,0,5.58-2.07,7.24-6.33a1,1,0,0,1,1.13-.58,52.69,52.69,0,0,0,13.28,1.48,52.58,52.58,0,0,0,13.28-1.48,1.07,1.07,0,0,1,.25,0,1,1,0,0,1,.89.61c1.66,4.26,4,6.33,7.23,6.33,2.19,0,4.14-1.37,5.81-4.06,3.13-5.07,5.05-14.75,5.11-25.88C65.29,37.93,63.65,27.93,60.93,22.52ZM33.17,13.8c7.5,0,12.55,5.26,12.55,13.08,0,5.58-1.31,13-12.64,13-11,0-12.47-6.93-12.47-13C20.61,19.06,25.66,13.8,33.17,13.8ZM19.3,65.69c-1.58,1.79-4.15,2.07-6.35,1.71C9.09,66.78,8.23,62.27,8.34,59a22.35,22.35,0,0,1,.53-4.45.53.53,0,0,1,.64-.39.52.52,0,0,1,.4.57c-.2,3.12-.63,10.18,3.32,10.9,2.19.45,5.09-.13,5.61-2.62A3.89,3.89,0,0,0,18,59.64a11,11,0,0,1-2.57-3.76,17.25,17.25,0,0,1-.89-4.43.47.47,0,0,1,.44-.51.48.48,0,0,1,.51.39,12.6,12.6,0,0,0,2.15,5.77c.42.53.93,1,1.47,1.56A5.26,5.26,0,0,1,19.3,65.69Zm3.25-20.95a37.23,37.23,0,0,1-3.76-1.56.89.89,0,1,1,.78-1.59,34.76,34.76,0,0,0,3.57,1.47c4.79,1.58,10.11,2.65,15.1,1.53a19.21,19.21,0,0,0,9.59-6,.48.48,0,0,1,.78.57,19.13,19.13,0,0,1-10,6.88C33.3,47.4,27.69,46.42,22.55,44.74ZM52.34,67.4c-3.12.59-6.82-.54-7.51-4a5.4,5.4,0,0,1,1.37-4.71c.55-.59,1.06-1,1.47-1.56a12.34,12.34,0,0,0,2.15-5.77.5.5,0,0,1,.57-.39.5.5,0,0,1,.39.51,16.86,16.86,0,0,1-.9,4.43,11.07,11.07,0,0,1-2.56,3.76A3.87,3.87,0,0,0,46.44,63c.54,2.49,3.42,3.07,5.62,2.62,3.95-.72,3.52-7.77,3.32-10.9a.52.52,0,0,1,1-.18C57.29,58.75,57.8,66.31,52.34,67.4Z"/><path class="cls-5" d="M65.21,48.62c-.06,11.13-2,20.81-5.11,25.88-1.67,2.69-3.62,4.06-5.81,4.06-3.21,0-5.57-2.07-7.23-6.33a1,1,0,0,0-.89-.61,1.07,1.07,0,0,0-.25,0,52.58,52.58,0,0,1-13.28,1.48,52.69,52.69,0,0,1-13.28-1.48,1,1,0,0,0-1.08.47c.33-.69,2.38-4.59,6.42-4.35,3,.18,15.9,1.72,24.24-.43a8,8,0,0,0,3.4.06c4.2-.84,4.87-5.52,4.55-9.53,2.15-11.06,6-31.95-11.42-50.36,6.06,2.12,11.2,6.51,15.46,15C63.65,27.93,65.29,37.93,65.21,48.62Z"/><path class="cls-5" d="M18.63,63.69c-.86,1.93-3.42,2.37-5.4,2-2.79-.51-3.39-4.19-3.43-7.4.61,2.32,1.93,5.34,4.6,5.78A6.78,6.78,0,0,0,18.63,63.69Z"/><path class="cls-5" d="M55.49,58.25c0,3.22-.64,6.89-3.43,7.4-2,.41-4.54,0-5.39-2a6.74,6.74,0,0,0,4.22.34C53.57,63.59,54.87,60.57,55.49,58.25Z"/><path class="cls-6" d="M33.17,15.72c-7.86,0-10.65,6-10.65,11.16C22.52,32.63,23.81,38,33.08,38c9.45,0,10.73-5.59,10.73-11.07C43.81,21.73,41,15.72,33.17,15.72Zm7,14.34a8,8,0,0,1-10.28,4.51A7.47,7.47,0,0,1,25.47,29l6.23-2.94-5.65-2a8,8,0,0,1,10.24-4.43A7.87,7.87,0,0,1,40.17,30.06Z"/><path class="cls-6" d="M44.15,47.45a1.8,1.8,0,0,1-2-1.53L42,44.75a19.4,19.4,0,0,0,3.33-2.13l.39,2.79A1.81,1.81,0,0,1,44.15,47.45Z"/><path class="cls-6" d="M40.05,47a1.8,1.8,0,1,1-3.59.25l-.05-.75a21.35,21.35,0,0,0,2.23-.42c.44-.13.88-.28,1.32-.44Z"/><path class="cls-6" d="M34.06,46.68v.73a1.8,1.8,0,0,1-3.6,0v-.88A28.82,28.82,0,0,0,34.06,46.68Z"/><path class="cls-6" d="M28.22,46.2l0,.37a1.8,1.8,0,1,1-3.59-.25l.06-.94A36,36,0,0,0,28.22,46.2Z"/><rect class="cls-3" x="90.35" y="67.86" width="176.6" height="5.37"/><path class="cls-1" d="M282.8,67.37,284,64.7l1.25-2.56h1.61L283.5,69v4.27H282V69l-3.38-6.84h1.62l1.29,2.64,1.17,2.59Z"/><path class="cls-1" d="M293.79,73.23l-.87-2.5h-4.41l-.85,2.5h-1.55L290,62.14h1.49l3.88,11.09Zm-3.1-9.06-.81,2.57L289,69.38h3.47l-.89-2.64-.82-2.57Z"/><path class="cls-1" d="M303.09,72.56a4.28,4.28,0,0,1-.91.45,5.53,5.53,0,0,1-1,.25,6.28,6.28,0,0,1-.94.08,4.65,4.65,0,0,1-1.54-.25,4,4,0,0,1-1.31-.71,3.77,3.77,0,0,1-.9-1.15,3.44,3.44,0,0,1-.34-1.53v-4a3.39,3.39,0,0,1,.34-1.51,3.65,3.65,0,0,1,.93-1.14,4,4,0,0,1,1.35-.72,5.09,5.09,0,0,1,1.62-.25,5.7,5.7,0,0,1,1.69.24,4.17,4.17,0,0,1,1.41.75l-.74,1.16a3.27,3.27,0,0,0-1.08-.58,4.23,4.23,0,0,0-1.28-.21,3.32,3.32,0,0,0-1,.15,2.77,2.77,0,0,0-.87.45,2.12,2.12,0,0,0-.62.79A2.6,2.6,0,0,0,297.7,66v3.46a3,3,0,0,0,.21,1.17,2.3,2.3,0,0,0,.58.8,2.47,2.47,0,0,0,.83.45,3.43,3.43,0,0,0,1,.14,5.37,5.37,0,0,0,.94-.1,2.82,2.82,0,0,0,1.18-.56V68.72h-1.78V67.39h3.24v4.5A3.78,3.78,0,0,1,303.09,72.56Z"/><path class="cls-1" d="M305.58,73.23V62.14h1.48v9.75H313v1.34Z"/><path class="cls-1" d="M321.6,73.23l-.86-2.5h-4.41l-.86,2.5h-1.54l3.86-11.09h1.5l3.88,11.09Zm-3.1-9.06-.81,2.57-.88,2.64h3.46l-.89-2.64-.82-2.57Z"/><path class="cls-1" d="M331.73,69V72.1h-1V69h-3V68h3V64.92h1V68h3v1Z"/><path class="cls-1" d="M343.69,70.94l1.12-3.8,1.58-5H348l-3.58,11.09h-1.61l-3.57-11.09h1.63l1.62,5.2,1.08,3.6Z"/><path class="cls-1" d="M351,62.83a.83.83,0,0,1-.26.61.83.83,0,0,1-1.21,0,.82.82,0,0,1-.25-.61.8.8,0,0,1,.25-.6.86.86,0,0,1,1.21,0A.81.81,0,0,1,351,62.83Zm-1.55,10.4v-8h1.39v8Z"/><path class="cls-1" d="M357.6,73a4.49,4.49,0,0,1-1,.21,6.82,6.82,0,0,1-.74.06,2.5,2.5,0,0,1-1.85-.58,2.7,2.7,0,0,1-.57-1.93V66.48h-1.13V65.25h1.16l.33-1.86h1v1.86h2.22v1.23h-2.22v3.91a3,3,0,0,0,.08.8,1.23,1.23,0,0,0,.25.5.72.72,0,0,0,.37.25,2,2,0,0,0,.52.07c.18,0,.38,0,.6,0l.7-.09Z"/><path class="cls-1" d="M363.68,72.46a6.93,6.93,0,0,1-1.56.68,4.5,4.5,0,0,1-1.08.15,2.59,2.59,0,0,1-1.85-.64,2.25,2.25,0,0,1-.7-1.76,2,2,0,0,1,.3-1.11,2.57,2.57,0,0,1,.74-.73,3.05,3.05,0,0,1,1-.4,4,4,0,0,1,.91-.12h2.33v-.61a1.34,1.34,0,0,0-.46-1.17,2.31,2.31,0,0,0-1.34-.33,5.34,5.34,0,0,0-1,.12,2.8,2.8,0,0,0-1.21.62l-.68-1a4.06,4.06,0,0,1,1.56-.77,6.62,6.62,0,0,1,1.47-.18,3.32,3.32,0,0,1,2.31.69,2.67,2.67,0,0,1,.76,2.1v5.28h-1.22l-.16-.74Zm0-2.79h-2.1a3.69,3.69,0,0,0-.56,0,2,2,0,0,0-.55.16,1,1,0,0,0-.43.37,1.18,1.18,0,0,0-.17.65,1,1,0,0,0,.39.87,1.63,1.63,0,0,0,1,.29A3,3,0,0,0,362,72c.22-.06.43-.14.64-.22s.41-.18.6-.28l.53-.29Z"/><path class="cls-1" d="M370.44,65.16a2.33,2.33,0,0,1,1.24.32,2,2,0,0,1,.79.91,8.36,8.36,0,0,1,.87-.63,4.91,4.91,0,0,1,.69-.38,2,2,0,0,1,.55-.17,2.49,2.49,0,0,1,.46,0,2.52,2.52,0,0,1,1.81.63,2.63,2.63,0,0,1,.66,2v5.46h-1.39V68.06a1.84,1.84,0,0,0-.3-1.17,1.26,1.26,0,0,0-1-.37,2,2,0,0,0-.92.25,7.59,7.59,0,0,0-1.14.75,1.29,1.29,0,0,1,0,.25,2.35,2.35,0,0,1,0,.28v5.18h-1.38V68a1.56,1.56,0,0,0-.35-1.15,1.17,1.17,0,0,0-.86-.34,2.78,2.78,0,0,0-1,.18,6.55,6.55,0,0,0-1.15.65v5.88h-1.38v-8h1.22l.15.91a8.44,8.44,0,0,1,.78-.51,6,6,0,0,1,.63-.31,2.31,2.31,0,0,1,.51-.14A3.73,3.73,0,0,1,370.44,65.16Z"/><path class="cls-1" d="M380.81,62.83a.8.8,0,0,1-.26.61.83.83,0,0,1-.61.26.82.82,0,0,1-.59-.26.8.8,0,0,1-.26-.61.77.77,0,0,1,.26-.6.81.81,0,0,1,.59-.25.82.82,0,0,1,.61.25A.77.77,0,0,1,380.81,62.83Zm-1.54,10.4v-8h1.38v8Z"/><path class="cls-1" d="M386.53,65.16a2.31,2.31,0,0,1,1.83.75A3,3,0,0,1,389,68v5.22h-1.38v-5a1.78,1.78,0,0,0-.4-1.31,1.39,1.39,0,0,0-1-.36,3.14,3.14,0,0,0-1.13.25,6.53,6.53,0,0,0-1.27.63v5.83h-1.38v-8h1.22l.16.88a9.22,9.22,0,0,1,.93-.51,4.77,4.77,0,0,1,.73-.29,3.1,3.1,0,0,1,.58-.13A4.26,4.26,0,0,1,386.53,65.16Z"/></svg>